<svg xmlns="http://www.w3.org/2000/svg">
  <g id="svg_1">
   <path d="m347.055389,9.307007l113.346832,0" id="path3829-3" stroke-miterlimit="4" stroke-width="4" stroke="#000000" fill="none"/>
   <path d="m2.429298,13.196114l107.758324,0c1.422028,-2.25296 1.422028,-5.461304 1.422028,-5.461304" id="path3829" stroke-miterlimit="4" stroke-width="4" stroke="#000000" fill="none"/>
   <g id="g3508">
    <path id="path3887-1" d="m111.831207,8.723358c0,0 4.258514,-5.686218 9.369995,-6.278496c5.601105,-0.648994 11.348602,6.942436 11.385193,12.639587c0.024597,3.826233 -4.371246,10.688042 -7.536682,8.588379c-6.55719,-4.349365 5.588394,-14.727905 5.588394,-14.727905" stroke-miterlimit="4" stroke-width="4" stroke="#000000" fill="none"/>
    <path id="path3887-1-8" d="m130.565369,8.723358c0,0 4.258514,-5.686218 9.370026,-6.278496c5.601105,-0.648994 11.348572,6.942436 11.385193,12.639587c0.024597,3.826233 -4.371277,10.688042 -7.536682,8.588379c-6.55722,-4.349365 5.588379,-14.727905 5.588379,-14.727905" stroke-miterlimit="4" stroke-width="4" stroke="#000000" fill="none"/>
    <path id="path3887-1-7" d="m149.815369,8.723358c0,0 4.258514,-5.686218 9.370026,-6.278496c5.601105,-0.648994 11.348572,6.942436 11.385162,12.639587c0.024597,3.826233 -4.371246,10.688042 -7.536652,8.588379c-6.55722,-4.349365 5.588379,-14.727905 5.588379,-14.727905" stroke-miterlimit="4" stroke-width="4" stroke="#000000" fill="none"/>
    <path id="path3887-1-6" d="m169.065338,8.723358c0,0 4.258545,-5.686218 9.369995,-6.278496c5.601135,-0.648994 11.348633,6.942436 11.385193,12.639587c0.024597,3.826233 -4.371216,10.688042 -7.536652,8.588379c-6.55722,-4.349365 5.588409,-14.727905 5.588409,-14.727905" stroke-miterlimit="4" stroke-width="4" stroke="#000000" fill="none"/>
    <path id="path3887-1-4" d="m188.315338,8.723358c0,0 4.258514,-5.686218 9.369995,-6.278496c5.601135,-0.648994 11.348602,6.942436 11.385193,12.639587c0.024597,3.826233 -4.371216,10.688042 -7.536682,8.588379c-6.55719,-4.349365 5.58844,-14.727905 5.58844,-14.727905" stroke-miterlimit="4" stroke-width="4" stroke="#000000" fill="none"/>
    <path id="path3887-1-72" d="m207.565399,8.723358c0,0 4.258484,-5.686218 9.369995,-6.278496c5.601105,-0.648994 11.348572,6.942436 11.385193,12.639587c0.024597,3.826233 -4.371277,10.688042 -7.536682,8.588379c-6.55722,-4.349365 5.588379,-14.727905 5.588379,-14.727905" stroke-miterlimit="4" stroke-width="4" stroke="#000000" fill="none"/>
    <path id="path3887-1-68" d="m227.273712,8.723358c0,0 4.258514,-5.686218 9.369995,-6.278496c5.601135,-0.648994 11.348572,6.942436 11.385193,12.639587c0.024597,3.826233 -4.371277,10.688042 -7.536682,8.588379c-6.55722,-4.349365 5.588379,-14.727905 5.588379,-14.727905" stroke-miterlimit="4" stroke-width="4" stroke="#000000" fill="none"/>
    <path id="path3887-1-9" d="m247.440338,8.723358c0,0 4.258545,-5.686218 9.369995,-6.278496c5.601135,-0.648994 11.348633,6.942436 11.385193,12.639587c0.024628,3.826233 -4.371216,10.688042 -7.536682,8.588379c-6.55719,-4.349365 5.58844,-14.727905 5.58844,-14.727905" stroke-miterlimit="4" stroke-width="4" stroke="#000000" fill="none"/>
    <path id="path3887-1-0" d="m266.690369,8.723358c0,0 4.258514,-5.686218 9.369965,-6.278496c5.601135,-0.648994 11.348633,6.942436 11.385193,12.639587c0.024628,3.826233 -4.371216,10.688042 -7.536652,8.588379c-6.55722,-4.349365 5.588409,-14.727905 5.588409,-14.727905" stroke-miterlimit="4" stroke-width="4" stroke="#000000" fill="none"/>
    <path id="path3887-1-0-4" d="m286.857025,8.723358c0,0 4.258575,-5.686218 9.370056,-6.278496c5.601074,-0.648994 11.348541,6.942436 11.385132,12.639587c0.024658,3.826233 -4.371216,10.688042 -7.536652,8.588379c-6.55722,-4.349365 5.588409,-14.727905 5.588409,-14.727905" stroke-miterlimit="4" stroke-width="4" stroke="#000000" fill="none"/>
    <path id="path3887-1-0-2" d="m306.107025,8.723358c0,0 4.258545,-5.686218 9.370056,-6.278496c5.601074,-0.648994 11.348541,6.942436 11.385162,12.639587c0.024628,3.826233 -4.371246,10.688042 -7.536652,8.588379c-6.55722,-4.349365 5.588379,-14.727905 5.588379,-14.727905" stroke-miterlimit="4" stroke-width="4" stroke="#000000" fill="none"/>
    <path id="path3887-1-0-3" d="m326.273712,8.723358c0,0 4.258514,-5.686218 9.369995,-6.278496c5.601135,-0.648994 11.348572,6.942436 11.385193,12.639587c0.024597,3.826233 -4.371277,10.688042 -7.536682,8.588379c-6.55722,-4.349365 5.588379,-14.727905 5.588379,-14.727905" stroke-miterlimit="4" stroke-width="4" stroke="#000000" fill="none"/>
   </g>
  </g>
</svg>